<svg width="76" height="75" viewBox="0 0 76 75" fill="none" xmlns="http://www.w3.org/2000/svg">
<path fill-rule="evenodd" clip-rule="evenodd" d="M37.9167 71.25C56.7631 71.25 72.0417 56.1394 72.0417 37.5C72.0417 18.8606 56.7631 3.75 37.9167 3.75C19.0702 3.75 3.79167 18.8606 3.79167 37.5C3.79167 56.1394 19.0702 71.25 37.9167 71.25ZM37.9167 75C58.858 75 75.8333 58.2112 75.8333 37.5C75.8333 16.7887 58.858 0 37.9167 0C16.9753 0 0 16.7887 0 37.5C0 58.2112 16.9753 75 37.9167 75Z" fill="#444444"/>
<path d="M15.1666 59.3063C15.1666 57.3694 16.6302 55.7326 18.5791 55.5188C33.2055 53.9176 42.6941 54.0619 57.2882 55.5544C58.017 55.6301 58.7077 55.9141 59.276 56.3716C59.8443 56.8292 60.2656 57.4405 60.4884 58.1309C60.7112 58.8213 60.7258 59.561 60.5306 60.2595C60.3353 60.9581 59.9386 61.5852 59.3888 62.0644C42.1652 76.9126 32.322 76.7082 16.38 62.0794C15.6027 61.3669 15.1666 60.3526 15.1666 59.3063Z" fill="#444444"/>
<path fill-rule="evenodd" clip-rule="evenodd" d="M57.0931 57.4181C42.6146 55.9369 33.2624 55.7981 18.7859 57.3825C18.3093 57.4374 17.87 57.6643 17.5521 58.0196C17.2341 58.3749 17.0598 58.8337 17.0626 59.3081C17.0626 59.8444 17.2882 60.3525 17.6692 60.705C25.571 67.9538 31.5581 71.2294 37.4105 71.25C43.2838 71.2706 49.5931 68.0213 58.1434 60.6525C58.415 60.4134 58.6105 60.1014 58.7062 59.7544C58.8019 59.4075 58.7936 59.0405 58.6824 58.6981C58.5711 58.3557 58.3617 58.0526 58.0796 57.8257C57.7974 57.5988 57.4547 57.456 57.0931 57.4181ZM18.3707 53.655C33.1506 52.0369 42.7776 52.1831 57.4855 53.6888C58.5819 53.8019 59.6211 54.2288 60.4759 54.9171C61.3308 55.6054 61.9641 56.5253 62.2985 57.5642C62.6329 58.603 62.6537 59.7157 62.3585 60.7661C62.0633 61.8165 61.4648 62.759 60.6364 63.4781C51.9629 70.9556 44.7398 75.0281 37.3992 75C30.0376 74.9738 23.133 70.8319 15.0928 63.4538C14.5171 62.9235 14.0582 62.2814 13.7447 61.5678C13.4313 60.8542 13.2699 60.0843 13.2709 59.3063C13.2681 57.9083 13.7869 56.5585 14.728 55.5154C15.669 54.4723 16.966 53.8111 18.3707 53.655Z" fill="#444444"/>
<path d="M53.0833 30C53.0833 33.9782 51.4854 37.7936 48.6411 40.6066C45.7968 43.4196 41.9391 45 37.9167 45C33.8942 45 30.0365 43.4196 27.1922 40.6066C24.3479 37.7936 22.75 33.9782 22.75 30C22.75 26.0218 24.3479 22.2064 27.1922 19.3934C30.0365 16.5804 33.8942 15 37.9167 15C41.9391 15 45.7968 16.5804 48.6411 19.3934C51.4854 22.2064 53.0833 26.0218 53.0833 30Z" fill="#444444"/>
<path fill-rule="evenodd" clip-rule="evenodd" d="M37.9167 41.25C40.9335 41.25 43.8268 40.0647 45.96 37.955C48.0932 35.8452 49.2917 32.9837 49.2917 30C49.2917 27.0163 48.0932 24.1548 45.96 22.045C43.8268 19.9353 40.9335 18.75 37.9167 18.75C34.8998 18.75 32.0066 19.9353 29.8733 22.045C27.7401 24.1548 26.5417 27.0163 26.5417 30C26.5417 32.9837 27.7401 35.8452 29.8733 37.955C32.0066 40.0647 34.8998 41.25 37.9167 41.25ZM37.9167 45C41.9391 45 45.7968 43.4196 48.6411 40.6066C51.4854 37.7936 53.0833 33.9782 53.0833 30C53.0833 26.0218 51.4854 22.2064 48.6411 19.3934C45.7968 16.5804 41.9391 15 37.9167 15C33.8942 15 30.0365 16.5804 27.1922 19.3934C24.3479 22.2064 22.75 26.0218 22.75 30C22.75 33.9782 24.3479 37.7936 27.1922 40.6066C30.0365 43.4196 33.8942 45 37.9167 45Z" fill="#444444"/>
</svg>
