<svg width="91" height="90" viewBox="0 0 91 90" fill="none" xmlns="http://www.w3.org/2000/svg">
<path fill-rule="evenodd" clip-rule="evenodd" d="M45.5 78.75C64.3465 78.75 79.625 63.6394 79.625 45C79.625 26.3606 64.3465 11.25 45.5 11.25C26.6536 11.25 11.375 26.3606 11.375 45C11.375 63.6394 26.6536 78.75 45.5 78.75ZM45.5 82.5C66.4414 82.5 83.4167 65.7112 83.4167 45C83.4167 24.2887 66.4414 7.5 45.5 7.5C24.5587 7.5 7.58337 24.2887 7.58337 45C7.58337 65.7112 24.5587 82.5 45.5 82.5Z" fill="#444444"/>
<path d="M22.75 66.8063C22.75 64.8694 24.2136 63.2326 26.1625 63.0188C40.7889 61.4176 50.2775 61.5619 64.8716 63.0544C65.6004 63.1301 66.2911 63.4141 66.8594 63.8716C67.4277 64.3292 67.849 64.9405 68.0718 65.6309C68.2945 66.3213 68.3092 67.061 68.1139 67.7595C67.9187 68.4581 67.5219 69.0852 66.9722 69.5644C49.7486 84.4126 39.9054 84.2082 23.9633 69.5794C23.186 68.8669 22.75 67.8526 22.75 66.8063Z" fill="#444444"/>
<path fill-rule="evenodd" clip-rule="evenodd" d="M64.6764 64.9181C50.198 63.4369 40.8458 63.2981 26.3692 64.8825C25.8927 64.9374 25.4534 65.1643 25.1354 65.5196C24.8175 65.8749 24.6432 66.3337 24.6459 66.8081C24.6459 67.3444 24.8715 67.8525 25.2526 68.205C33.1544 75.4538 39.1415 78.7294 44.9939 78.75C50.8672 78.7706 57.1765 75.5213 65.7267 68.1525C65.9984 67.9134 66.1939 67.6014 66.2896 67.2544C66.3853 66.9075 66.377 66.5405 66.2658 66.1981C66.1545 65.8557 65.9451 65.5526 65.6629 65.3257C65.3808 65.0988 65.0381 64.956 64.6764 64.9181ZM25.954 61.155C40.734 59.5369 50.361 59.6831 65.0689 61.1888C66.1652 61.3019 67.2045 61.7288 68.0593 62.4171C68.9141 63.1054 69.5475 64.0253 69.8819 65.0642C70.2162 66.103 70.2371 67.2157 69.9419 68.2661C69.6467 69.3165 69.0482 70.259 68.2198 70.9781C59.5463 78.4556 52.3232 82.5281 44.9825 82.5C37.621 82.4738 30.7164 78.3319 22.6762 70.9538C22.1005 70.4235 21.6416 69.7814 21.3281 69.0678C21.0146 68.3542 20.8533 67.5843 20.8543 66.8063C20.8515 65.4083 21.3703 64.0585 22.3113 63.0154C23.2523 61.9723 24.5494 61.3111 25.954 61.155Z" fill="#444444"/>
<path d="M60.6667 37.5C60.6667 41.4782 59.0688 45.2936 56.2245 48.1066C53.3802 50.9196 49.5225 52.5 45.5 52.5C41.4776 52.5 37.6199 50.9196 34.7756 48.1066C31.9313 45.2936 30.3334 41.4782 30.3334 37.5C30.3334 33.5218 31.9313 29.7064 34.7756 26.8934C37.6199 24.0804 41.4776 22.5 45.5 22.5C49.5225 22.5 53.3802 24.0804 56.2245 26.8934C59.0688 29.7064 60.6667 33.5218 60.6667 37.5Z" fill="#444444"/>
<path fill-rule="evenodd" clip-rule="evenodd" d="M45.5 48.75C48.5169 48.75 51.4102 47.5647 53.5434 45.455C55.6766 43.3452 56.875 40.4837 56.875 37.5C56.875 34.5163 55.6766 31.6548 53.5434 29.545C51.4102 27.4353 48.5169 26.25 45.5 26.25C42.4832 26.25 39.5899 27.4353 37.4567 29.545C35.3235 31.6548 34.125 34.5163 34.125 37.5C34.125 40.4837 35.3235 43.3452 37.4567 45.455C39.5899 47.5647 42.4832 48.75 45.5 48.75ZM45.5 52.5C49.5225 52.5 53.3802 50.9196 56.2245 48.1066C59.0688 45.2936 60.6667 41.4782 60.6667 37.5C60.6667 33.5218 59.0688 29.7064 56.2245 26.8934C53.3802 24.0804 49.5225 22.5 45.5 22.5C41.4776 22.5 37.6199 24.0804 34.7756 26.8934C31.9313 29.7064 30.3334 33.5218 30.3334 37.5C30.3334 41.4782 31.9313 45.2936 34.7756 48.1066C37.6199 50.9196 41.4776 52.5 45.5 52.5Z" fill="#444444"/>
</svg>
