<svg width="75" height="69" viewBox="0 0 75 69" fill="none" xmlns="http://www.w3.org/2000/svg">
<path d="M62.3438 60.375C55.625 60.375 49.076 58.9969 42.6969 56.2407C36.3156 53.4865 30.6646 49.8448 25.7437 45.3158C20.8208 40.7886 16.8625 35.5896 13.8688 29.7189C10.8729 23.85 9.375 17.825 9.375 11.6438C9.375 10.7813 9.6875 10.0625 10.3125 9.4875C10.9375 8.9125 11.7188 8.625 12.6563 8.625H25.3125C26.0417 8.625 26.6927 8.84062 27.2656 9.27187C27.8385 9.70312 28.1771 10.2542 28.2812 10.925L30.3125 20.9875C30.4167 21.6583 30.4042 22.2688 30.275 22.8189C30.1437 23.3709 29.8437 23.8625 29.375 24.2937L21.7969 31.3375C23.9844 34.7875 26.7323 38.0219 30.0406 41.0406C33.3469 44.0594 36.9792 46.6708 40.9375 48.875L48.2812 42.1187C48.75 41.6875 49.3625 41.3636 50.1188 41.147C50.8729 40.9323 51.6146 40.8729 52.3438 40.9688L63.125 42.9813C63.8542 43.125 64.4531 43.448 64.9219 43.9501C65.3906 44.4542 65.625 45.0417 65.625 45.7125V57.3563C65.625 58.2188 65.3125 58.9375 64.6875 59.5125C64.0625 60.0875 63.2813 60.375 62.3438 60.375ZM18.8281 25.875L23.9844 21.1312L22.6562 14.375H15.7031C15.9635 16.3396 16.3281 18.2802 16.7969 20.1969C17.2656 22.1135 17.9427 24.0063 18.8281 25.875ZM59.375 54.4813V48.1562L52.0312 46.7906L46.7969 51.6063C48.8281 52.4208 50.899 53.0677 53.0094 53.5469C55.1177 54.026 57.2396 54.3375 59.375 54.4813Z" fill="#699BF7"/>
</svg>
